<svg xmlns="http://www.w3.org/2000/svg" xmlns:xlink="http://www.w3.org/1999/xlink" viewBox="0 0 762.6 387.49"><defs><style>.a{fill:none;}.b{clip-path:url(#a);}.c{fill:#148033;}.d{fill:#83c780;}.e{fill:#2fb44a;}</style><clipPath id="a" transform="translate(-13.35 -12.79)"><rect class="a" width="792" height="416.79"/></clipPath></defs><title>venom-logo</title><g class="b"><path class="c" d="M173.88,28.12C269,51.54,312.35,146.87,312.35,148.48c-56,68.41-155.18,192.32-155.18,192.32H102.75L91.9,133.8h45.47l15.32,142.26,107.05-133.5s-6.66-40-69.16-77.14S16.12,32.6,16.12,32.6c-.8,0-1.21-.46-1.21-1.38v-1.9c0-4,63.9-24.62,159-1.2" transform="translate(-13.35 -12.79)"/><path class="c" d="M450.82,400.25c-33.85.56-63.42-6.14-82.17-21.11-24.66-19.67-32.38-38.85-34.37-57.53s1.49-49,26.65-83.86h44.4l4.48,58.09L458,237.75h32.55L410.33,341.44H388.47s-8.15-69.24-9.64-77.63c-4.93,3.9-21.22,15.61-21,46.59.25,37.61,25,57.8,49.81,69.74,31.64,15.19,79.53,12.22,79.53,12.22l1.21.69c0,3-12.45,6.78-37.55,7.2" transform="translate(-13.35 -12.79)"/><path class="c" d="M598.16,237.75l-13.95,21.07H548.15c-45.7,0-71,41.87-71,54.47,1.61,7.45,9.06,16.26,29.55,4.49,29-16.66,36.82-53.16,36.82-53.16,0-.58,23.77,0,23.77,0,0,.8-11.36,49.21-52.88,71.74-29.47,16-73,3.75-62.51-29.9,10.92-35.08,46.87-68.71,85.76-68.71s.52-.37.52,0c4.37-.37,59.94,0,59.94,0" transform="translate(-13.35 -12.79)"/><path class="c" d="M774.06,247.64c-12.62-61.28-79.38-71.24-112-70.24-33.39,2.3-39,3.67-39,6.64l1.21.69s51.76-3,84.88,13.09c32.48,15.81,47,39.44,46.34,62.5-1,33.85-22.89,53-22.89,53l-9.64-75.53H701.08l-53.25,65.13-8-65.13H618L537.72,341.44h32.54l48.23-60.2,8,60.2h26.86l48.23-60.2,4.47,60.2h44.41c13-18.49,31.44-55.65,23.58-93.8" transform="translate(-13.35 -12.79)"/><path class="c" d="M231.08,341.44c-.22.16,8.11,0,13.1,0-6,0-12.11.1-13.1,0" transform="translate(-13.35 -12.79)"/><path class="c" d="M292.12,288a28.78,28.78,0,0,1-21.69,9.3H246.76l-9,16.62s44.77,6.4,63.67-6.2c16.9-11.27,46.73-47.25,37.42-62C326.4,226,267.91,242,230,275.61c-39.57,35.08-38.3,65.83.6,65.83h.51c22.09,0,20,0,13.1,0,17.48.05,38.1,0,38.1,0L297,323.25H250.71c-45.71,0,1.69-43.73,17.66-54.47s32.45-16.26,36-4.49c1.86,6.16-5.05,15-12,23.77Z" transform="translate(-13.35 -12.79)"/><path class="d" d="M173.09,23.8c95.08,23.42,138.47,118.75,138.47,120.36-56,68.41-155.17,192.32-155.17,192.32H102l-10.86-207h45.47l15.33,142.26,107-133.5s-6.66-40-69.15-77.14S15.34,28.27,15.34,28.27c-.81,0-1.21-.46-1.21-1.37V25c0-4,63.89-24.62,159-1.2" transform="translate(-13.35 -12.79)"/><path class="d" d="M450,395.92c-33.86.57-63.42-6.13-82.18-21.1-24.65-19.68-32.38-38.85-34.37-57.53s1.49-49.05,26.65-83.86h44.41L409,291.51l48.23-58.08H489.8L409.54,337.12H387.68s-8.14-69.24-9.64-77.64c-4.93,3.91-21.21,15.61-21,46.6.25,37.61,25,57.8,49.81,69.74C438.48,391,486.38,388,486.38,388l1.2.68c0,3-12.45,6.78-37.54,7.2" transform="translate(-13.35 -12.79)"/><path class="d" d="M597.38,233.43l-14,21.07H547.36c-45.69,0-71,41.87-71,54.46,1.61,7.45,9.06,16.26,29.56,4.5,29-16.66,36.82-53.16,36.82-53.16,0-.58,23.76,0,23.76,0,0,.8-11.35,49.21-52.87,71.74-29.47,16-73,3.74-62.52-29.9,10.93-35.09,46.88-68.71,85.77-68.71s.52-.38.52,0c4.36-.38,59.94,0,59.94,0" transform="translate(-13.35 -12.79)"/><path class="d" d="M773.27,243.32c-12.62-61.28-79.37-71.24-112-70.25-33.4,2.3-39,3.68-39,6.65l1.2.68s51.76-3,84.88,13.1c32.49,15.81,47.06,39.44,46.35,62.5-1.05,33.85-22.9,53-22.9,53l-9.64-75.53H700.3l-53.25,65.13-8-65.13H617.19L536.93,337.12h32.55l48.23-60.2,8,60.2h26.87l48.22-60.2,4.48,60.2H749.7c13-18.49,31.44-55.65,23.57-93.8" transform="translate(-13.35 -12.79)"/><path class="d" d="M230.3,337.12c-.22.15,8.1,0,13.1,0-6,0-12.12.09-13.1,0" transform="translate(-13.35 -12.79)"/><path class="d" d="M291.33,283.65a28.77,28.77,0,0,1-21.69,9.29H246l-9,16.63s44.78,6.4,63.67-6.2c16.91-11.27,46.74-47.25,37.43-62-12.45-19.71-70.93-3.74-108.88,29.91-39.56,35.08-38.29,65.83.6,65.83h.52c22.09,0,20,0,13.1,0,17.47,0,38.1,0,38.1,0l14.71-18.19H249.92c-45.7,0,1.69-43.74,17.67-54.48s32.45-16.25,36-4.48c1.86,6.16-5.06,15-12,23.77Z" transform="translate(-13.35 -12.79)"/><path class="e" d="M172.31,26.35C267.38,49.77,310.78,145.1,310.78,146.71,254.75,215.12,155.6,339,155.6,339H101.19L90.33,132H135.8l15.32,142.25L258.17,140.79s-6.66-40-69.15-77.14S14.55,30.83,14.55,30.83q-1.2,0-1.2-1.38v-1.9c0-4,63.89-24.62,159-1.2" transform="translate(-13.35 -12.79)"/><path class="e" d="M449.25,398.47c-33.85.57-63.42-6.13-82.17-21.1-24.66-19.67-32.38-38.85-34.37-57.53s1.49-49,26.65-83.86h44.41l4.47,58.09L456.46,236H489L408.76,339.67H386.9s-8.14-69.24-9.64-77.63c-4.93,3.9-21.21,15.61-21,46.59.25,37.61,25,57.8,49.81,69.74,31.64,15.19,79.53,12.22,79.53,12.22l1.21.69c0,3-12.45,6.78-37.55,7.19" transform="translate(-13.35 -12.79)"/><path class="e" d="M596.59,236l-14,21.07H546.58c-45.7,0-71,41.87-71,54.47,1.61,7.45,9.06,16.26,29.56,4.49,29-16.66,36.82-53.16,36.82-53.16,0-.58,23.76,0,23.76,0,0,.8-11.35,49.21-52.87,71.74-29.48,16-73,3.75-62.52-29.9C461.3,269.61,497.25,236,536.13,236s.53-.37.53,0c4.36-.37,59.93,0,59.93,0" transform="translate(-13.35 -12.79)"/><path class="e" d="M772.49,245.87c-12.62-61.28-79.38-71.24-112-70.24-33.4,2.3-39,3.67-39,6.64l1.21.69s51.76-3,84.88,13.09c32.49,15.81,47.05,39.44,46.35,62.5-1,33.85-22.9,53-22.9,53L721.37,236H699.51l-53.25,65.13-8-65.13H616.41L536.15,339.67H568.7l48.22-60.2,8,60.2H651.8L700,279.47l4.47,60.2h44.41c13-18.49,31.44-55.65,23.58-93.8" transform="translate(-13.35 -12.79)"/><path class="e" d="M229.52,339.67c-.23.16,8.1,0,13.09,0-6,0-12.11.1-13.09,0" transform="translate(-13.35 -12.79)"/><path class="e" d="M290.55,286.2a28.76,28.76,0,0,1-21.69,9.3H245.19l-9,16.62s44.77,6.4,63.67-6.2c16.9-11.27,46.73-47.24,37.43-62-12.45-19.71-70.93-3.74-108.88,29.91-39.57,35.08-38.29,65.83.6,65.83h.52c22.09,0,20,0,13.09,0,17.48.05,38.11,0,38.11,0l14.7-18.19H249.14c-45.71,0,1.69-43.73,17.67-54.47s32.44-16.26,36-4.49c1.87,6.16-5.05,15-12,23.77Z" transform="translate(-13.35 -12.79)"/></g></svg>