<svg id="Layer_1" data-name="Layer 1" xmlns="http://www.w3.org/2000/svg" xmlns:xlink="http://www.w3.org/1999/xlink" viewBox="0 0 792 416.8">
  <defs>
    <style>
      .cls-1 {
        fill: none;
      }

      .cls-2 {
        clip-path: url(#clip-path);
      }

      .cls-3 {
        fill: #148033;
      }

      .cls-4 {
        fill: #83c780;
      }

      .cls-5 {
        fill: #2fb44a;
      }
    </style>
    <clipPath id="clip-path">
      <rect class="cls-1" width="792" height="416.79"/>
    </clipPath>
  </defs>
  <title>venom-e</title>
  <g class="cls-2">
    <path class="cls-3" d="M231.08,341.44c-.22.16,8.11,0,13.1,0-6,0-12.11.1-13.1,0"/>
    <path class="cls-3" d="M292.12,288a28.78,28.78,0,0,1-21.69,9.3H246.76l-9,16.62s44.77,6.4,63.67-6.2c16.9-11.27,46.73-47.25,37.42-62C326.4,226,267.91,242,230,275.61c-39.57,35.08-38.3,65.83.6,65.83h.51c22.09,0,20,0,13.1,0,17.48.05,38.1,0,38.1,0L297,323.25H250.71c-45.71,0,1.69-43.73,17.66-54.47s32.45-16.26,36-4.49c1.86,6.16-5.05,15-12,23.77Z"/>
    <path class="cls-4" d="M230.3,337.12c-.22.15,8.1,0,13.1,0-6,0-12.12.09-13.1,0"/>
    <path class="cls-4" d="M291.33,283.65a28.77,28.77,0,0,1-21.69,9.29H246l-9,16.63s44.78,6.4,63.67-6.2c16.91-11.27,46.74-47.25,37.43-62-12.45-19.71-70.93-3.74-108.88,29.91-39.56,35.08-38.29,65.83.6,65.83h.52c22.09,0,20,0,13.1,0,17.47,0,38.1,0,38.1,0l14.71-18.19H249.92c-45.7,0,1.69-43.74,17.67-54.48s32.45-16.25,36-4.48c1.86,6.16-5.06,15-12,23.77Z"/>
    <path class="cls-5" d="M229.52,339.67c-.23.16,8.1,0,13.09,0-6,0-12.11.1-13.09,0"/>
    <path class="cls-5" d="M290.55,286.2a28.76,28.76,0,0,1-21.69,9.3H245.19l-9,16.62s44.77,6.4,63.67-6.2c16.9-11.27,46.73-47.24,37.43-62-12.45-19.71-70.93-3.74-108.88,29.91-39.57,35.08-38.29,65.83.6,65.83h.52c22.09,0,20,0,13.09,0,17.48.05,38.11,0,38.11,0l14.7-18.19H249.14c-45.71,0,1.69-43.73,17.67-54.47s32.44-16.26,36-4.49c1.87,6.16-5.05,15-12,23.77Z"/>
  </g>
</svg>
