<svg id="Layer_1" data-name="Layer 1" xmlns="http://www.w3.org/2000/svg" xmlns:xlink="http://www.w3.org/1999/xlink" viewBox="0 0 792 416.8">
  <defs>
    <style>
      .cls-1 {
        fill: none;
      }

      .cls-2 {
        clip-path: url(#clip-path);
      }

      .cls-3 {
        fill: #148033;
      }

      .cls-4 {
        fill: #83c780;
      }

      .cls-5 {
        fill: #2fb44a;
      }
    </style>
    <clipPath id="clip-path">
      <rect class="cls-1" width="792" height="416.79"/>
    </clipPath>
  </defs>
  <title>venom-v</title>
  <g class="cls-2">
    <path class="cls-3" d="M173.88,28.12C269,51.54,312.35,146.87,312.35,148.48c-56,68.41-155.18,192.32-155.18,192.32H102.75L91.9,133.8h45.47l15.32,142.26,107.05-133.5s-6.66-40-69.16-77.14S16.12,32.6,16.12,32.6c-.8,0-1.21-.46-1.21-1.38v-1.9c0-4,63.9-24.62,159-1.2"/>
    <path class="cls-3" d="M231.08,341.44c-.22.16,8.11,0,13.1,0-6,0-12.11.1-13.1,0"/>
    <path class="cls-4" d="M173.09,23.8c95.08,23.42,138.47,118.75,138.47,120.36-56,68.41-155.17,192.32-155.17,192.32H102l-10.86-207h45.47l15.33,142.26,107-133.5s-6.66-40-69.15-77.14S15.34,28.27,15.34,28.27c-.81,0-1.21-.46-1.21-1.37V25c0-4,63.89-24.62,159-1.2"/>
    <path class="cls-4" d="M230.3,337.12c-.22.15,8.1,0,13.1,0-6,0-12.12.09-13.1,0"/>
    <path class="cls-5" d="M172.31,26.35C267.38,49.77,310.78,145.1,310.78,146.71,254.75,215.12,155.6,339,155.6,339H101.19L90.33,132H135.8l15.32,142.25L258.17,140.79s-6.66-40-69.15-77.14S14.55,30.83,14.55,30.83q-1.2,0-1.2-1.38v-1.9c0-4,63.89-24.62,159-1.2"/>
    <path class="cls-5" d="M229.52,339.67c-.23.16,8.1,0,13.09,0-6,0-12.11.1-13.09,0"/>
  </g>
</svg>
