<svg id="Layer_1" data-name="Layer 1" xmlns="http://www.w3.org/2000/svg" xmlns:xlink="http://www.w3.org/1999/xlink" viewBox="0 0 792 416.8">
  <defs>
    <style>
      .cls-1 {
        fill: none;
      }

      .cls-2 {
        clip-path: url(#clip-path);
      }

      .cls-3 {
        fill: #148033;
      }

      .cls-4 {
        fill: #83c780;
      }

      .cls-5 {
        fill: #2fb44a;
      }
    </style>
    <clipPath id="clip-path">
      <rect class="cls-1" width="792" height="416.79"/>
    </clipPath>
  </defs>
  <title>venom-o</title>
  <g class="cls-2">
    <path class="cls-3" d="M598.16,237.75l-13.95,21.07H548.15c-45.7,0-71,41.87-71,54.47,1.61,7.45,9.06,16.26,29.55,4.49,29-16.66,36.82-53.16,36.82-53.16,0-.58,23.77,0,23.77,0,0,.8-11.36,49.21-52.88,71.74-29.47,16-73,3.75-62.51-29.9,10.92-35.08,46.87-68.71,85.76-68.71s.52-.37.52,0c4.37-.37,59.94,0,59.94,0"/>
    <path class="cls-3" d="M231.08,341.44c-.22.16,8.11,0,13.1,0-6,0-12.11.1-13.1,0"/>
    <path class="cls-4" d="M597.38,233.43l-14,21.07H547.36c-45.69,0-71,41.87-71,54.46,1.61,7.45,9.06,16.26,29.56,4.5,29-16.66,36.82-53.16,36.82-53.16,0-.58,23.76,0,23.76,0,0,.8-11.35,49.21-52.87,71.74-29.47,16-73,3.74-62.52-29.9,10.93-35.09,46.88-68.71,85.77-68.71s.52-.38.52,0c4.36-.38,59.94,0,59.94,0"/>
    <path class="cls-4" d="M230.3,337.12c-.22.15,8.1,0,13.1,0-6,0-12.12.09-13.1,0"/>
    <path class="cls-5" d="M596.59,236l-14,21.07H546.58c-45.7,0-71,41.87-71,54.47,1.61,7.45,9.06,16.26,29.56,4.49,29-16.66,36.82-53.16,36.82-53.16,0-.58,23.76,0,23.76,0,0,.8-11.35,49.21-52.87,71.74-29.48,16-73,3.75-62.52-29.9C461.3,269.61,497.25,236,536.13,236s.53-.37.53,0c4.36-.37,59.93,0,59.93,0"/>
    <path class="cls-5" d="M229.52,339.67c-.23.16,8.1,0,13.09,0-6,0-12.11.1-13.09,0"/>
  </g>
</svg>
