<svg id="Layer_1" data-name="Layer 1" xmlns="http://www.w3.org/2000/svg" xmlns:xlink="http://www.w3.org/1999/xlink" viewBox="0 0 792 416.8">
  <defs>
    <style>
      .cls-1 {
        fill: none;
      }

      .cls-2 {
        clip-path: url(#clip-path);
      }

      .cls-3 {
        fill: #148033;
      }

      .cls-4 {
        fill: #83c780;
      }

      .cls-5 {
        fill: #2fb44a;
      }
    </style>
    <clipPath id="clip-path">
      <rect class="cls-1" width="792" height="416.79"/>
    </clipPath>
  </defs>
  <title>venom-n</title>
  <g class="cls-2">
    <path class="cls-3" d="M450.82,400.25c-33.85.56-63.42-6.14-82.17-21.11-24.66-19.67-32.38-38.85-34.37-57.53s1.49-49,26.65-83.86h44.4l4.48,58.09L458,237.75h32.55L410.33,341.44H388.47s-8.15-69.24-9.64-77.63c-4.93,3.9-21.22,15.61-21,46.59.25,37.61,25,57.8,49.81,69.74,31.64,15.19,79.53,12.22,79.53,12.22l1.21.69c0,3-12.45,6.78-37.55,7.2"/>
    <path class="cls-3" d="M231.08,341.44c-.22.16,8.11,0,13.1,0-6,0-12.11.1-13.1,0"/>
    <path class="cls-4" d="M450,395.92c-33.86.57-63.42-6.13-82.18-21.1-24.65-19.68-32.38-38.85-34.37-57.53s1.49-49.05,26.65-83.86h44.41L409,291.51l48.23-58.08H489.8L409.54,337.12H387.68s-8.14-69.24-9.64-77.64c-4.93,3.91-21.21,15.61-21,46.6.25,37.61,25,57.8,49.81,69.74C438.48,391,486.38,388,486.38,388l1.2.68c0,3-12.45,6.78-37.54,7.2"/>
    <path class="cls-4" d="M230.3,337.12c-.22.15,8.1,0,13.1,0-6,0-12.12.09-13.1,0"/>
    <path class="cls-5" d="M449.25,398.47c-33.85.57-63.42-6.13-82.17-21.1-24.66-19.67-32.38-38.85-34.37-57.53s1.49-49,26.65-83.86h44.41l4.47,58.09L456.46,236H489L408.76,339.67H386.9s-8.14-69.24-9.64-77.63c-4.93,3.9-21.21,15.61-21,46.59.25,37.61,25,57.8,49.81,69.74,31.64,15.19,79.53,12.22,79.53,12.22l1.21.69c0,3-12.45,6.78-37.55,7.19"/>
    <path class="cls-5" d="M229.52,339.67c-.23.16,8.1,0,13.09,0-6,0-12.11.1-13.09,0"/>
  </g>
</svg>
