<svg id="Layer_1" data-name="Layer 1" xmlns="http://www.w3.org/2000/svg" xmlns:xlink="http://www.w3.org/1999/xlink" viewBox="0 0 299 328.01">
  <defs>
    <style>
      .cls-1 {
        fill: none;
      }

      .cls-2 {
        clip-path: url(#clip-path);
      }

      .cls-3 {
        fill: #148033;
      }

      .cls-4 {
        fill: #83c780;
      }

      .cls-5 {
        fill: #2fb44a;
      }
    </style>
    <clipPath id="clip-path">
      <rect class="cls-1" x="-13.35" y="-12.79" width="792" height="416.79"/>
    </clipPath>
  </defs>
  <title>venom-v-trim</title>
  <g class="cls-2">
    <g>
      <path class="cls-3" d="M160.53,15.33C255.65,38.75,299,134.08,299,135.69,243,204.1,143.82,328,143.82,328H89.4L78.55,121H124l15.32,142.26,107-133.5s-6.66-40-69.16-77.14S2.77,19.81,2.77,19.81c-.8,0-1.21-.46-1.21-1.38v-1.9c0-4,63.9-24.62,159-1.2"/>
      <path class="cls-4" d="M159.74,11c95.08,23.42,138.47,118.75,138.47,120.36C242.21,199.78,143,323.69,143,323.69H88.65l-10.86-207h45.47L138.59,259l107-133.5s-6.66-40-69.15-77.14S2,15.48,2,15.48c-.81,0-1.21-.46-1.21-1.37v-1.9c0-4,63.89-24.62,159-1.2"/>
      <path class="cls-5" d="M159,13.56C254,37,297.43,132.31,297.43,133.92c-56,68.41-155.18,192.29-155.18,192.29H87.84L77,119.21h45.47l15.32,142.25L244.82,128s-6.66-40-69.15-77.14S1.2,18,1.2,18Q0,18,0,16.66v-1.9c0-4,63.89-24.62,159-1.2"/>
    </g>
  </g>
</svg>
