<svg id="Layer_1" data-name="Layer 1" xmlns="http://www.w3.org/2000/svg" xmlns:xlink="http://www.w3.org/1999/xlink" viewBox="0 0 792 416.8">
  <defs>
    <style>
      .cls-1 {
        fill: none;
      }

      .cls-2 {
        clip-path: url(#clip-path);
      }

      .cls-3 {
        fill: #148033;
      }

      .cls-4 {
        fill: #83c780;
      }

      .cls-5 {
        fill: #2fb44a;
      }
    </style>
    <clipPath id="clip-path">
      <rect class="cls-1" width="792" height="416.79"/>
    </clipPath>
  </defs>
  <title>venom-m</title>
  <g class="cls-2">
    <path class="cls-3" d="M774.06,247.64c-12.62-61.28-79.38-71.24-112-70.24-33.39,2.3-39,3.67-39,6.64l1.21.69s51.76-3,84.88,13.09c32.48,15.81,47,39.44,46.34,62.5-1,33.85-22.89,53-22.89,53l-9.64-75.53H701.08l-53.25,65.13-8-65.13H618L537.72,341.44h32.54l48.23-60.2,8,60.2h26.86l48.23-60.2,4.47,60.2h44.41c13-18.49,31.44-55.65,23.58-93.8"/>
    <path class="cls-3" d="M231.08,341.44c-.22.16,8.11,0,13.1,0-6,0-12.11.1-13.1,0"/>
    <path class="cls-4" d="M773.27,243.32c-12.62-61.28-79.37-71.24-112-70.25-33.4,2.3-39,3.68-39,6.65l1.2.68s51.76-3,84.88,13.1c32.49,15.81,47.06,39.44,46.35,62.5-1.05,33.85-22.9,53-22.9,53l-9.64-75.53H700.3l-53.25,65.13-8-65.13H617.19L536.93,337.12h32.55l48.23-60.2,8,60.2h26.87l48.22-60.2,4.48,60.2H749.7c13-18.49,31.44-55.65,23.57-93.8"/>
    <path class="cls-4" d="M230.3,337.12c-.22.15,8.1,0,13.1,0-6,0-12.12.09-13.1,0"/>
    <path class="cls-5" d="M772.49,245.87c-12.62-61.28-79.38-71.24-112-70.24-33.4,2.3-39,3.67-39,6.64l1.21.69s51.76-3,84.88,13.09c32.49,15.81,47.05,39.44,46.35,62.5-1,33.85-22.9,53-22.9,53L721.37,236H699.51l-53.25,65.13-8-65.13H616.41L536.15,339.67H568.7l48.22-60.2,8,60.2H651.8L700,279.47l4.47,60.2h44.41c13-18.49,31.44-55.65,23.58-93.8"/>
    <path class="cls-5" d="M229.52,339.67c-.23.16,8.1,0,13.09,0-6,0-12.11.1-13.09,0"/>
  </g>
</svg>
