<svg xmlns="http://www.w3.org/2000/svg" xmlns:xlink="http://www.w3.org/1999/xlink" viewBox="0 0 761.03 383.16"><defs><style>.a{clip-path:url(#a);}.b{fill:#2fb44a;}</style><clipPath id="a" transform="translate(-13.35 -15.34)"/></defs><title>venom-logo-simple</title><g class="a"><path class="b" d="M172.31,26.35C267.38,49.77,310.78,145.1,310.78,146.71,254.75,215.12,155.6,339,155.6,339H101.19L90.33,132H135.8l15.32,142.25L258.17,140.79s-6.66-40-69.15-77.14S14.55,30.83,14.55,30.83q-1.2,0-1.2-1.38v-1.9c0-4,63.89-24.62,159-1.2" transform="translate(-13.35 -15.34)"/><path class="b" d="M449.25,398.47c-33.85.57-63.42-6.13-82.17-21.1-24.66-19.67-32.38-38.85-34.37-57.53s1.49-49,26.65-83.86h44.41l4.47,58.09L456.46,236H489L408.76,339.67H386.9s-8.14-69.24-9.64-77.63c-4.93,3.9-21.21,15.61-21,46.59.25,37.61,25,57.8,49.81,69.74,31.64,15.19,79.53,12.22,79.53,12.22l1.21.69c0,3-12.45,6.78-37.55,7.19" transform="translate(-13.35 -15.34)"/><path class="b" d="M596.59,236l-14,21.07H546.58c-45.7,0-71,41.87-71,54.47,1.61,7.45,9.06,16.26,29.56,4.49,29-16.66,36.82-53.16,36.82-53.16,0-.58,23.76,0,23.76,0,0,.8-11.35,49.21-52.87,71.74-29.48,16-73,3.75-62.52-29.9C461.3,269.61,497.25,236,536.13,236s.53-.37.53,0c4.36-.37,59.93,0,59.93,0" transform="translate(-13.35 -15.34)"/><path class="b" d="M772.49,245.87c-12.62-61.28-79.38-71.24-112-70.24-33.4,2.3-39,3.67-39,6.64l1.21.69s51.76-3,84.88,13.09c32.49,15.81,47.05,39.44,46.35,62.5-1,33.85-22.9,53-22.9,53L721.37,236H699.51l-53.25,65.13-8-65.13H616.41L536.15,339.67H568.7l48.22-60.2,8,60.2H651.8L700,279.47l4.47,60.2h44.41c13-18.49,31.44-55.65,23.58-93.8" transform="translate(-13.35 -15.34)"/><path class="b" d="M290.55,286.2a28.76,28.76,0,0,1-21.69,9.3H245.19l-9,16.62s44.77,6.4,63.67-6.2c16.9-11.27,46.73-47.24,37.43-62-12.45-19.71-70.93-3.74-108.88,29.91-39.57,35.08-38.29,65.83.6,65.83h.52c22.09,0,20,0,13.09,0,17.48.05,38.11,0,38.11,0l14.7-18.19H249.14c-45.71,0,1.69-43.73,17.67-54.47s32.44-16.26,36-4.49c1.87,6.16-5.05,15-12,23.77Z" transform="translate(-13.35 -15.34)"/></g></svg>